<?xml version="1.0" encoding="utf-8"?>
<!-- Generator: Adobe Illustrator 16.0.0, SVG Export Plug-In . SVG Version: 6.00 Build 0)  -->
<!DOCTYPE svg PUBLIC "-//W3C//DTD SVG 1.1//EN" "http://www.w3.org/Graphics/SVG/1.1/DTD/svg11.dtd">
<svg version="1.1" xmlns="http://www.w3.org/2000/svg" xmlns:xlink="http://www.w3.org/1999/xlink" x="0px" y="0px" width="558px"
	 height="342px" viewBox="0 0 558 342" enable-background="new 0 0 558 342" xml:space="preserve">
<g id="Layer_1" display="none">
	<g display="inline">
		<path fill="none" stroke="#000000" stroke-width="11" stroke-linecap="square" stroke-miterlimit="10" d="M529.246,313
			c0,0.55-0.449,1-1,1H28.01c-0.55,0-1-0.45-1-1V27.333c0-0.55,0.45-1,1-1h500.236c0.551,0,1,0.45,1,1V313z"/>
	</g>
	<g display="inline">
		<path d="M58.368,268.737v-2.065c0-0.648,0.354-1.003,1.003-1.003h6.313c0.649,0,1.004,0.354,1.004,1.003v2.065
			c0,3.776,2.654,6.313,6.667,6.313c4.131,0,6.845-2.537,6.845-6.313v-27.319c0-0.649,0.354-1.003,1.003-1.003h6.255
			c0.649,0,1.003,0.354,1.003,1.003v27.319c0,8.084-6.077,13.453-15.105,13.453C64.386,282.19,58.368,276.821,58.368,268.737z"/>
		<path d="M98.783,267.853v-13.631c0-8.614,6.077-14.279,15.342-14.279c9.146,0,15.282,5.429,15.282,13.631
			c0,0.354-0.354,0.59-0.944,0.648l-6.313,0.413c-0.649,0.06-1.062-0.117-1.062-0.295v-0.354c0-4.131-2.773-6.904-6.962-6.904
			c-4.249,0-7.022,2.773-7.022,6.904v14.22c0,4.071,2.773,6.845,7.022,6.845c4.188,0,6.962-2.773,6.962-6.845
			c0-0.413,0.354-0.708,1.003-0.648l6.314,0.295c0.59,0.059,1.003,0.118,1.003,0.295v0.295c0,8.261-6.137,13.748-15.282,13.748
			C104.86,282.19,98.783,276.467,98.783,267.853z"/>
		<path d="M162.741,240.415h6.313c0.649,0,1.003,0.354,1.003,1.003v39.298c0,0.648-0.354,1.003-1.003,1.003h-6.313
			c-0.649,0-1.003-0.354-1.003-1.003v-15.932c0-0.236-0.118-0.354-0.354-0.354h-12.922c-0.236,0-0.354,0.118-0.354,0.354v15.932
			c0,0.648-0.354,1.003-1.003,1.003h-6.313c-0.649,0-1.003-0.354-1.003-1.003v-39.298c0-0.649,0.354-1.003,1.003-1.003h6.313
			c0.649,0,1.003,0.354,1.003,1.003v15.519c0,0.235,0.118,0.354,0.354,0.354h12.922c0.236,0,0.354-0.118,0.354-0.354v-15.519
			C161.738,240.769,162.091,240.415,162.741,240.415z"/>
	</g>
	<rect id="_x3C_Slice_x3E_" x="-0.333" y="-0.333" display="inline" fill="none" width="557.333" height="341.333"/>
</g>
<g id="Layer_2">
	<g>
		<path fill="none" stroke="#FFFFFF" stroke-width="10" stroke-linecap="square" stroke-miterlimit="10" d="M528.5,304.005
			c0,1.1-0.9,2-2,2H32.996c-1.1,0-2-0.9-2-2V46.577c0-1.1,0.9-2,2-2H526.5c1.1,0,2,0.9,2,2V304.005z"/>
	</g>
	<g>
		<path fill="#FFFFFF" d="M132.678,112.936c-1.1,0-2,0.9-2,2v115.539c0,1.1-0.9,2-2,2h-43.17c-1.1,0-2,0.9-2,2v3.058
			c0,1.1,0.9,2,2,2h43.17c1.1,0,2.9,0,4,0h4.416c1.1,0,2.9,0,4,0h33.092c1.1,0,2-0.9,2-2V114.936c0-1.1-0.9-2-2-2H132.678z"/>
	</g>
	<g>
		<path fill="#FFFFFF" d="M296.062,119.996c1.1,0,2-0.9,2-2v-3.06c0-1.1-0.9-2-2-2h-57.219c-1.1,0-2.9,0-4,0h-4.104
			c-1.1,0-2.9,0-4,0h-35.434c-1.1,0-2,0.9-2,2v122.597c0,1.1,0.9,2,2,2H226.6c1.1,0,2.9,0,4,0h4.243c1.1,0,2.9,0,4,0h57.078
			c1.1,0,2-0.9,2-2v-3.058c0-1.1-0.9-2-2-2h-57.078c-1.1,0-2-0.9-2-2V121.996c0-1.1,0.9-2,2-2H296.062z"/>
	</g>
	<g>
		<path fill="#FFFFFF" d="M391.998,112.936c-1.1,0-2,0.9-2,2v80.823c0,1.1-0.9,2-2,2H361.7c-1.1,0-2-0.9-2-2v-80.823
			c0-1.1-0.9-2-2-2h-41.506c-1.1,0-2,0.9-2,2v122.597c0,1.1,0.9,2,2,2H357.7c1.1,0,2-0.9,2-2v-30.713c0-1.1,0.9-2,2-2h26.298
			c1.1,0,2,0.9,2,2v30.713c0,1.1,0.9,2,2,2h41.507c1.1,0,2-0.9,2-2V114.936c0-1.1-0.9-2-2-2H391.998z"/>
	</g>
	<path fill="#FFFFFF" d="M476.294,227.056c0,7.245-5.867,13.114-13.111,13.114c-7.239,0-13.109-5.869-13.109-13.114
		c0-7.241,5.87-13.109,13.109-13.109C470.427,213.946,476.294,219.814,476.294,227.056z"/>
</g>
</svg>
