<?xml version="1.0" encoding="utf-8"?>
<!-- Generator: Adobe Illustrator 16.0.0, SVG Export Plug-In . SVG Version: 6.00 Build 0)  -->
<!DOCTYPE svg PUBLIC "-//W3C//DTD SVG 1.1//EN" "http://www.w3.org/Graphics/SVG/1.1/DTD/svg11.dtd">
<svg version="1.1" id="Layer_1" xmlns="http://www.w3.org/2000/svg" xmlns:xlink="http://www.w3.org/1999/xlink" x="0px" y="0px"
	 width="558px" height="342px" viewBox="0 0 558 342" enable-background="new 0 0 558 342" xml:space="preserve">
<g id="Layer_1_2_">
	<g id="Layer_1_1_" display="none">
		<g display="inline">
			<path fill="none" stroke="#000000" stroke-width="11" stroke-linecap="square" stroke-miterlimit="10" d="M529.246,313
				c0,0.55-0.449,1-1,1H28.01c-0.55,0-1-0.45-1-1V27.333c0-0.55,0.45-1,1-1h500.236c0.551,0,1,0.45,1,1V313z"/>
		</g>
		<g display="inline">
			<path d="M58.368,268.736v-2.064c0-0.648,0.354-1.003,1.003-1.003h6.313c0.649,0,1.004,0.354,1.004,1.003v2.064
				c0,3.777,2.654,6.312,6.667,6.312c4.131,0,6.845-2.535,6.845-6.312v-27.318c0-0.648,0.354-1.003,1.003-1.003h6.255
				c0.649,0,1.003,0.354,1.003,1.003v27.318c0,8.084-6.077,13.453-15.105,13.453C64.386,282.189,58.368,276.82,58.368,268.736z"/>
			<path d="M98.783,267.854v-13.631c0-8.615,6.077-14.279,15.342-14.279c9.146,0,15.282,5.43,15.282,13.632
				c0,0.354-0.354,0.59-0.944,0.647l-6.313,0.412c-0.649,0.061-1.062-0.117-1.062-0.295v-0.354c0-4.131-2.773-6.904-6.962-6.904
				c-4.249,0-7.022,2.773-7.022,6.904v14.22c0,4.071,2.773,6.845,7.022,6.845c4.188,0,6.962-2.773,6.962-6.845
				c0-0.413,0.354-0.708,1.003-0.647l6.314,0.295c0.59,0.06,1.003,0.117,1.003,0.295v0.295c0,8.262-6.137,13.748-15.282,13.748
				C104.86,282.189,98.783,276.467,98.783,267.854z"/>
			<path d="M162.741,240.415h6.313c0.649,0,1.003,0.354,1.003,1.003v39.298c0,0.648-0.354,1.003-1.003,1.003h-6.313
				c-0.649,0-1.003-0.354-1.003-1.003v-15.932c0-0.236-0.118-0.354-0.354-0.354h-12.922c-0.236,0-0.354,0.118-0.354,0.354v15.932
				c0,0.648-0.354,1.003-1.003,1.003h-6.313c-0.649,0-1.003-0.354-1.003-1.003v-39.298c0-0.648,0.354-1.003,1.003-1.003h6.313
				c0.649,0,1.003,0.354,1.003,1.003v15.52c0,0.234,0.118,0.354,0.354,0.354h12.922c0.236,0,0.354-0.118,0.354-0.354v-15.52
				C161.738,240.77,162.091,240.415,162.741,240.415z"/>
		</g>
		<rect id="_x3C_Slice_x3E_" x="-0.333" y="-0.333" display="inline" fill="none" width="557.333" height="341.333"/>
	</g>
</g>
<g id="Layer_2">
	<g>
		<path fill="none" stroke="#FFFFFF" stroke-width="11" stroke-linecap="square" stroke-miterlimit="10" d="M530.118,313.834
			c0,0.551-0.45,1-1,1H28.882c-0.55,0-1-0.449-1-1V28.167c0-0.55,0.45-1,1-1h500.236c0.55,0,1,0.45,1,1V313.834z"/>
	</g>
	<g>
		<path fill="#FFFFFF" d="M59.239,269.572v-2.066c0-0.648,0.354-1.002,1.003-1.002h6.313c0.649,0,1.004,0.354,1.004,1.002v2.066
			c0,3.775,2.654,6.312,6.667,6.312c4.131,0,6.845-2.536,6.845-6.312v-27.32c0-0.648,0.354-1.002,1.003-1.002h6.255
			c0.649,0,1.003,0.354,1.003,1.002v27.32c0,8.084-6.077,13.453-15.105,13.453C65.258,283.025,59.239,277.656,59.239,269.572z"/>
		<path fill="#FFFFFF" d="M99.654,268.688v-13.631c0-8.615,6.077-14.279,15.342-14.279c9.146,0,15.282,5.429,15.282,13.632
			c0,0.354-0.354,0.59-0.944,0.647l-6.313,0.412c-0.649,0.061-1.062-0.117-1.062-0.295v-0.354c0-4.131-2.773-6.904-6.962-6.904
			c-4.249,0-7.022,2.773-7.022,6.904v14.221c0,4.07,2.773,6.844,7.022,6.844c4.188,0,6.962-2.773,6.962-6.844
			c0-0.414,0.354-0.709,1.003-0.648l6.314,0.295c0.59,0.06,1.003,0.117,1.003,0.295v0.295c0,8.261-6.137,13.748-15.282,13.748
			C105.731,283.025,99.654,277.301,99.654,268.688z"/>
		<path fill="#FFFFFF" d="M163.612,241.25h6.313c0.649,0,1.003,0.354,1.003,1.002v39.299c0,0.648-0.354,1.002-1.003,1.002h-6.313
			c-0.649,0-1.003-0.354-1.003-1.002v-15.932c0-0.236-0.118-0.355-0.354-0.355h-12.922c-0.236,0-0.354,0.119-0.354,0.355v15.932
			c0,0.648-0.354,1.002-1.003,1.002h-6.313c-0.649,0-1.003-0.354-1.003-1.002v-39.299c0-0.648,0.354-1.002,1.003-1.002h6.313
			c0.649,0,1.003,0.354,1.003,1.002v15.52c0,0.234,0.118,0.354,0.354,0.354h12.922c0.236,0,0.354-0.119,0.354-0.354v-15.52
			C162.609,241.604,162.963,241.25,163.612,241.25z"/>
	</g>
	<g>
		<path fill="#FFFFFF" d="M182.285,264.168c0,0.551-0.45,1-1,1h-19.25c-0.55,0-1-0.449-1-1v-5.043c0-0.551,0.45-1,1-1h19.25
			c0.55,0,1,0.449,1,1V264.168z"/>
	</g>
</g>
</svg>
